<svg width="466" height="995" viewBox="0 0 466 995" fill="none" xmlns="http://www.w3.org/2000/svg">
<g clip-path="url(#clip0_101_166)">
<path d="M253.86 514.886C301.831 442.833 319.406 385.822 332.799 342.379C337.644 326.662 341.941 312.721 346.932 300.487C356.318 277.481 368.135 260.445 390.603 248.512C413.177 236.523 446.647 229.605 499.536 227.293C629.044 221.632 743.713 324.059 749.494 456.315C750.943 489.445 747.47 515.753 739.96 538.557C732.451 561.36 720.881 580.735 706.037 599.976C692.997 616.88 677.466 633.64 659.952 652.539C657.505 655.18 655.019 657.863 652.495 660.594C631.931 682.848 608.943 708.234 584.399 740.033C565.43 764.609 530.797 770.406 490.06 762.97C449.401 755.549 403.159 735.012 361.699 707.667C320.235 680.32 283.693 646.256 262.343 611.892C240.979 577.508 235.014 543.191 253.86 514.886Z" stroke="#EEF8FF" stroke-width="3"/>
<path d="M309.053 504.175C350.649 441.699 365.895 392.241 377.503 354.585C381.7 340.972 385.421 328.902 389.739 318.317C397.863 298.404 408.079 283.683 427.498 273.37C447.022 263.001 475.994 257.006 521.827 255.002C633.966 250.101 733.257 338.792 738.262 453.309C739.516 482.005 736.508 504.781 730.009 524.519C723.509 544.255 713.494 561.027 700.638 577.692C689.342 592.335 675.888 606.854 660.708 623.235C658.586 625.524 656.431 627.85 654.244 630.217C636.42 649.506 616.49 671.514 595.213 699.081C578.842 720.291 548.926 725.327 513.641 718.887C478.435 712.461 438.381 694.674 402.463 670.985C366.54 647.292 334.894 617.788 316.409 588.036C297.911 558.264 292.782 528.613 309.053 504.175Z" stroke="#EEF8FF" stroke-width="3"/>
<path d="M359.576 510.61C393.564 459.562 406.032 419.117 415.511 388.367C418.933 377.265 421.966 367.426 425.482 358.809C432.1 342.587 440.406 330.63 456.186 322.249C472.071 313.812 495.676 308.919 533.088 307.284C624.499 303.289 705.439 375.589 709.519 468.937C710.542 492.341 708.088 510.904 702.793 526.981C697.499 543.058 689.34 556.725 678.856 570.315C669.641 582.26 658.665 594.105 646.269 607.482C644.538 609.351 642.778 611.249 640.991 613.183C626.436 628.934 610.158 646.91 592.777 669.429C579.507 686.621 555.22 690.75 526.441 685.498C497.742 680.259 465.073 665.755 435.767 646.426C406.457 627.095 380.652 603.032 365.587 578.784C350.509 554.516 346.378 530.432 359.576 510.61Z" stroke="#EEF8FF" stroke-width="3"/>
<path d="M415.372 503.133C442.232 462.79 452.098 430.789 459.582 406.51C462.28 397.759 464.668 390.011 467.432 383.237C472.639 370.474 479.156 361.105 491.527 354.534C504.004 347.908 522.58 344.047 552.104 342.757C624.097 339.61 687.846 396.555 691.06 470.073C691.866 488.52 689.931 503.135 685.766 515.784C681.6 528.433 675.18 539.191 666.918 549.901C659.653 559.319 650.998 568.658 641.211 579.22C639.844 580.695 638.454 582.195 637.043 583.721C625.551 596.158 612.692 610.358 598.962 628.146C588.597 641.575 569.582 644.855 546.9 640.715C524.295 636.589 498.544 625.159 475.433 609.916C452.318 594.671 431.985 575.704 420.123 556.612C408.249 537.5 405.053 518.632 415.372 503.133Z" stroke="#EEF8FF" stroke-width="3"/>
</g>
<defs>
<clipPath id="clip0_101_166">
<rect width="723.595" height="732.545" fill="white" transform="translate(628.717 994.69) rotate(-150.329)"/>
</clipPath>
</defs>
</svg>
