<svg width="730" height="556" viewBox="0 0 730 556" fill="none" xmlns="http://www.w3.org/2000/svg">
<path d="M47.15 412.2C44.05 412.2 41.65 411.35 39.95 409.65C38.35 407.85 37.55 405.4 37.55 402.3V313.95C37.55 310.75 38.35 308.3 39.95 306.6C41.65 304.9 44.05 304.05 47.15 304.05C50.25 304.05 52.6 304.9 54.2 306.6C55.9 308.3 56.75 310.75 56.75 313.95V349.35H111.2V313.95C111.2 310.75 112 308.3 113.6 306.6C115.3 304.9 117.7 304.05 120.8 304.05C123.9 304.05 126.25 304.9 127.85 306.6C129.55 308.3 130.4 310.75 130.4 313.95V402.3C130.4 405.4 129.55 407.85 127.85 409.65C126.25 411.35 123.9 412.2 120.8 412.2C117.7 412.2 115.3 411.35 113.6 409.65C112 407.85 111.2 405.4 111.2 402.3V365.4H56.75V402.3C56.75 405.4 55.95 407.85 54.35 409.65C52.75 411.35 50.35 412.2 47.15 412.2ZM178.766 412.5C171.166 412.5 164.566 410.95 158.966 407.85C153.366 404.75 149.016 400.35 145.916 394.65C142.816 388.85 141.266 382.05 141.266 374.25C141.266 368.35 142.116 363.1 143.816 358.5C145.616 353.8 148.166 349.8 151.466 346.5C154.766 343.1 158.716 340.55 163.316 338.85C167.916 337.05 173.066 336.15 178.766 336.15C186.366 336.15 192.966 337.7 198.566 340.8C204.166 343.9 208.516 348.3 211.616 354C214.716 359.7 216.266 366.45 216.266 374.25C216.266 380.15 215.366 385.45 213.566 390.15C211.866 394.85 209.366 398.9 206.066 402.3C202.766 405.6 198.816 408.15 194.216 409.95C189.616 411.65 184.466 412.5 178.766 412.5ZM178.766 398.25C182.466 398.25 185.716 397.35 188.516 395.55C191.316 393.75 193.466 391.1 194.966 387.6C196.566 384 197.366 379.55 197.366 374.25C197.366 366.25 195.666 360.3 192.266 356.4C188.866 352.4 184.366 350.4 178.766 350.4C175.066 350.4 171.816 351.3 169.016 353.1C166.216 354.8 164.016 357.45 162.416 361.05C160.916 364.55 160.166 368.95 160.166 374.25C160.166 382.15 161.866 388.15 165.266 392.25C168.666 396.25 173.166 398.25 178.766 398.25ZM235.592 439.2C232.592 439.2 230.292 438.4 228.692 436.8C227.092 435.2 226.292 432.85 226.292 429.75V345.9C226.292 342.8 227.092 340.45 228.692 338.85C230.292 337.25 232.542 336.45 235.442 336.45C238.442 336.45 240.742 337.25 242.342 338.85C243.942 340.45 244.742 342.8 244.742 345.9V357.6L243.092 353.1C244.592 348 247.642 343.9 252.242 340.8C256.942 337.7 262.392 336.15 268.592 336.15C274.992 336.15 280.592 337.7 285.392 340.8C290.292 343.9 294.092 348.3 296.792 354C299.492 359.6 300.842 366.35 300.842 374.25C300.842 382.05 299.492 388.85 296.792 394.65C294.092 400.35 290.342 404.75 285.542 407.85C280.742 410.95 275.092 412.5 268.592 412.5C262.492 412.5 257.142 411 252.542 408C247.942 404.9 244.842 400.9 243.242 396H245.042V429.75C245.042 432.85 244.192 435.2 242.492 436.8C240.892 438.4 238.592 439.2 235.592 439.2ZM263.342 398.25C267.042 398.25 270.292 397.35 273.092 395.55C275.892 393.75 278.042 391.1 279.542 387.6C281.142 384 281.942 379.55 281.942 374.25C281.942 366.25 280.242 360.3 276.842 356.4C273.442 352.4 268.942 350.4 263.342 350.4C259.642 350.4 256.392 351.3 253.592 353.1C250.792 354.8 248.592 357.45 246.992 361.05C245.492 364.55 244.742 368.95 244.742 374.25C244.742 382.15 246.442 388.15 249.842 392.25C253.242 396.25 257.742 398.25 263.342 398.25ZM345.131 412.5C337.331 412.5 330.531 410.9 324.731 407.7C319.031 404.5 314.631 399.75 311.531 393.45C308.431 387.05 306.881 379.2 306.881 369.9V358.95C306.881 349.05 308.331 340.8 311.231 334.2C314.231 327.5 318.631 322.15 324.431 318.15C330.331 314.05 337.581 310.95 346.181 308.85L365.681 304.05C368.281 303.35 370.481 303.5 372.281 304.5C374.081 305.4 375.231 307.1 375.731 309.6C376.231 312.1 375.831 314.25 374.531 316.05C373.231 317.75 371.231 318.9 368.531 319.5L347.531 324.45C342.531 325.65 338.331 327.55 334.931 330.15C331.531 332.65 328.931 335.8 327.131 339.6C325.431 343.4 324.581 347.8 324.581 352.8V360.9H322.031C323.031 356.6 324.731 352.75 327.131 349.35C329.631 345.95 332.831 343.3 336.731 341.4C340.631 339.4 345.181 338.4 350.381 338.4C356.481 338.4 361.881 339.9 366.581 342.9C371.381 345.8 375.131 349.95 377.831 355.35C380.531 360.75 381.881 367.2 381.881 374.7C381.881 382.4 380.331 389.1 377.231 394.8C374.231 400.4 369.981 404.75 364.481 407.85C358.981 410.95 352.531 412.5 345.131 412.5ZM344.381 398.25C348.381 398.25 351.731 397.4 354.431 395.7C357.231 393.9 359.331 391.3 360.731 387.9C362.231 384.5 362.981 380.35 362.981 375.45C362.981 368.15 361.331 362.55 358.031 358.65C354.831 354.65 350.281 352.65 344.381 352.65C340.481 352.65 337.131 353.55 334.331 355.35C331.531 357.05 329.381 359.55 327.881 362.85C326.481 366.15 325.781 370.1 325.781 374.7C325.781 382.4 327.381 388.25 330.581 392.25C333.881 396.25 338.481 398.25 344.381 398.25ZM428.057 412.5C419.757 412.5 412.607 410.95 406.607 407.85C400.607 404.75 395.957 400.35 392.657 394.65C389.457 388.95 387.857 382.2 387.857 374.4C387.857 366.8 389.407 360.15 392.507 354.45C395.707 348.75 400.057 344.3 405.557 341.1C411.157 337.8 417.507 336.15 424.607 336.15C429.807 336.15 434.457 337 438.557 338.7C442.757 340.4 446.307 342.85 449.207 346.05C452.207 349.25 454.457 353.15 455.957 357.75C457.557 362.25 458.357 367.35 458.357 373.05C458.357 374.85 457.707 376.25 456.407 377.25C455.207 378.15 453.457 378.6 451.157 378.6H403.007V367.8H445.157L442.757 370.05C442.757 365.45 442.057 361.6 440.657 358.5C439.357 355.4 437.407 353.05 434.807 351.45C432.307 349.75 429.157 348.9 425.357 348.9C421.157 348.9 417.557 349.9 414.557 351.9C411.657 353.8 409.407 356.55 407.807 360.15C406.307 363.65 405.557 367.85 405.557 372.75V373.8C405.557 382 407.457 388.15 411.257 392.25C415.157 396.25 420.857 398.25 428.357 398.25C430.957 398.25 433.857 397.95 437.057 397.35C440.357 396.65 443.457 395.5 446.357 393.9C448.457 392.7 450.307 392.2 451.907 392.4C453.507 392.5 454.757 393.05 455.657 394.05C456.657 395.05 457.257 396.3 457.457 397.8C457.657 399.2 457.357 400.65 456.557 402.15C455.857 403.65 454.607 404.95 452.807 406.05C449.307 408.25 445.257 409.9 440.657 411C436.157 412 431.957 412.5 428.057 412.5ZM477.057 412.2C474.057 412.2 471.707 411.4 470.007 409.8C468.407 408.1 467.607 405.7 467.607 402.6V346.2C467.607 343.1 468.407 340.75 470.007 339.15C471.707 337.45 474.057 336.6 477.057 336.6C480.057 336.6 482.357 337.45 483.957 339.15C485.557 340.75 486.357 343.1 486.357 346.2V366.15H497.007L515.757 340.95C517.157 339.05 518.757 337.85 520.557 337.35C522.357 336.75 524.057 336.7 525.657 337.2C527.357 337.7 528.707 338.6 529.707 339.9C530.807 341.2 531.357 342.75 531.357 344.55C531.457 346.25 530.807 348.05 529.407 349.95L511.557 374.4L507.507 368.4C510.207 368.7 512.607 369.45 514.707 370.65C516.907 371.85 518.907 373.55 520.707 375.75C522.607 377.85 524.457 380.5 526.257 383.7L535.107 399.45C536.307 401.55 536.707 403.5 536.307 405.3C536.007 407 535.157 408.45 533.757 409.65C532.457 410.85 530.907 411.6 529.107 411.9C527.307 412.2 525.507 411.95 523.707 411.15C522.007 410.45 520.557 409.05 519.357 406.95L509.307 389.4C508.007 387.1 506.707 385.35 505.407 384.15C504.207 382.85 502.807 381.95 501.207 381.45C499.707 380.95 497.857 380.7 495.657 380.7H486.357V402.6C486.357 405.7 485.557 408.1 483.957 409.8C482.357 411.4 480.057 412.2 477.057 412.2ZM577.496 412.5C569.896 412.5 563.296 410.95 557.696 407.85C552.096 404.75 547.746 400.35 544.646 394.65C541.546 388.85 539.996 382.05 539.996 374.25C539.996 368.35 540.846 363.1 542.546 358.5C544.346 353.8 546.896 349.8 550.196 346.5C553.496 343.1 557.446 340.55 562.046 338.85C566.646 337.05 571.796 336.15 577.496 336.15C585.096 336.15 591.696 337.7 597.296 340.8C602.896 343.9 607.246 348.3 610.346 354C613.446 359.7 614.996 366.45 614.996 374.25C614.996 380.15 614.096 385.45 612.296 390.15C610.596 394.85 608.096 398.9 604.796 402.3C601.496 405.6 597.546 408.15 592.946 409.95C588.346 411.65 583.196 412.5 577.496 412.5ZM577.496 398.25C581.196 398.25 584.446 397.35 587.246 395.55C590.046 393.75 592.196 391.1 593.696 387.6C595.296 384 596.096 379.55 596.096 374.25C596.096 366.25 594.396 360.3 590.996 356.4C587.596 352.4 583.096 350.4 577.496 350.4C573.796 350.4 570.546 351.3 567.746 353.1C564.946 354.8 562.746 357.45 561.146 361.05C559.646 364.55 558.896 368.95 558.896 374.25C558.896 382.15 560.596 388.15 563.996 392.25C567.396 396.25 571.896 398.25 577.496 398.25ZM634.173 411C631.173 411 628.873 410.2 627.273 408.6C625.673 407 624.873 404.7 624.873 401.7V346.95C624.873 343.95 625.673 341.65 627.273 340.05C628.873 338.45 631.173 337.65 634.173 337.65H664.473C670.773 337.65 675.873 338.4 679.773 339.9C683.773 341.4 686.673 343.6 688.473 346.5C690.273 349.3 691.173 352.75 691.173 356.85C691.173 361.45 689.573 365.35 686.373 368.55C683.273 371.65 679.123 373.55 673.923 374.25V372.15C680.423 372.55 685.323 374.4 688.623 377.7C692.023 381 693.723 385.25 693.723 390.45C693.723 396.75 691.323 401.75 686.523 405.45C681.723 409.15 674.773 411 665.673 411H634.173ZM642.273 399.45H664.023C668.123 399.45 671.223 398.6 673.323 396.9C675.523 395.2 676.623 392.7 676.623 389.4C676.623 386.1 675.523 383.6 673.323 381.9C671.223 380.2 668.123 379.35 664.023 379.35H642.273V399.45ZM642.273 367.8H662.673C666.273 367.8 669.073 367 671.073 365.4C673.073 363.7 674.073 361.35 674.073 358.35C674.073 355.35 673.073 353.1 671.073 351.6C669.073 350 666.273 349.2 662.673 349.2H642.273V367.8Z" fill="#3092DE"/>
<rect x="26" y="454" width="674" height="8" rx="4" fill="url(#paint0_linear_17_326)"/>
<path d="M66.39 511.38C63.6033 511.38 61.2093 510.823 59.208 509.708C57.232 508.568 55.712 506.972 54.648 504.92C53.584 502.843 53.052 500.398 53.052 497.586C53.052 495.483 53.356 493.596 53.964 491.924C54.572 490.227 55.446 488.783 56.586 487.592C57.726 486.376 59.1193 485.451 60.766 484.818C62.438 484.159 64.3127 483.83 66.39 483.83C67.7833 483.83 69.1513 484.007 70.494 484.362C71.8367 484.717 73.0147 485.223 74.028 485.882C74.56 486.211 74.9147 486.617 75.092 487.098C75.2693 487.554 75.3073 488.01 75.206 488.466C75.1047 488.897 74.8893 489.264 74.56 489.568C74.256 489.872 73.8633 490.049 73.382 490.1C72.926 490.125 72.4193 489.961 71.862 489.606C71.0767 489.099 70.228 488.732 69.316 488.504C68.404 488.276 67.4793 488.162 66.542 488.162C64.7433 488.162 63.2233 488.529 61.982 489.264C60.7407 489.999 59.8033 491.063 59.17 492.456C58.5367 493.849 58.22 495.559 58.22 497.586C58.22 499.587 58.5367 501.297 59.17 502.716C59.8033 504.135 60.7407 505.211 61.982 505.946C63.2233 506.681 64.7433 507.048 66.542 507.048C67.5047 507.048 68.4547 506.934 69.392 506.706C70.3293 506.453 71.216 506.073 72.052 505.566C72.6093 505.237 73.1033 505.097 73.534 505.148C73.99 505.173 74.37 505.325 74.674 505.604C74.978 505.883 75.1807 506.237 75.282 506.668C75.3833 507.073 75.358 507.504 75.206 507.96C75.054 508.391 74.75 508.771 74.294 509.1C73.2807 509.835 72.0647 510.405 70.646 510.81C69.2527 511.19 67.834 511.38 66.39 511.38ZM93.367 511.38C91.4417 511.38 89.7697 510.987 88.351 510.202C86.9324 509.417 85.8304 508.302 85.045 506.858C84.2597 505.389 83.867 503.666 83.867 501.69C83.867 500.195 84.0824 498.865 84.513 497.7C84.969 496.509 85.615 495.496 86.451 494.66C87.287 493.799 88.2877 493.153 89.453 492.722C90.6184 492.266 91.923 492.038 93.367 492.038C95.2924 492.038 96.9644 492.431 98.383 493.216C99.8017 494.001 100.904 495.116 101.689 496.56C102.474 498.004 102.867 499.714 102.867 501.69C102.867 503.185 102.639 504.527 102.183 505.718C101.752 506.909 101.119 507.935 100.283 508.796C99.447 509.632 98.4464 510.278 97.281 510.734C96.1157 511.165 94.811 511.38 93.367 511.38ZM93.367 507.77C94.3044 507.77 95.1277 507.542 95.837 507.086C96.5464 506.63 97.091 505.959 97.471 505.072C97.8764 504.16 98.079 503.033 98.079 501.69C98.079 499.663 97.6484 498.156 96.787 497.168C95.9257 496.155 94.7857 495.648 93.367 495.648C92.4297 495.648 91.6064 495.876 90.897 496.332C90.1877 496.763 89.6304 497.434 89.225 498.346C88.845 499.233 88.655 500.347 88.655 501.69C88.655 503.691 89.0857 505.211 89.947 506.25C90.8084 507.263 91.9484 507.77 93.367 507.77ZM115.363 511.304C114.603 511.304 114.008 511.089 113.577 510.658C113.172 510.227 112.969 509.619 112.969 508.834V495.078C112.969 494.217 113.197 493.558 113.653 493.102C114.109 492.646 114.768 492.418 115.629 492.418H125.319C126.003 492.418 126.51 492.57 126.839 492.874C127.168 493.178 127.333 493.647 127.333 494.28C127.333 494.888 127.168 495.357 126.839 495.686C126.51 495.99 126.003 496.142 125.319 496.142H117.719V508.834C117.719 510.481 116.934 511.304 115.363 511.304ZM150.19 511.304C149.43 511.304 148.847 511.101 148.442 510.696C148.037 510.265 147.834 509.657 147.834 508.872V496.142H141.982V498.308C141.982 500.056 141.868 501.627 141.64 503.02C141.437 504.413 141.108 505.629 140.652 506.668C140.221 507.707 139.651 508.581 138.942 509.29C138.233 509.999 137.384 510.569 136.396 511C135.864 511.228 135.37 511.291 134.914 511.19C134.483 511.089 134.116 510.899 133.812 510.62C133.533 510.316 133.356 509.961 133.28 509.556C133.204 509.125 133.255 508.707 133.432 508.302C133.609 507.897 133.951 507.555 134.458 507.276C135.091 506.921 135.611 506.478 136.016 505.946C136.421 505.414 136.738 504.781 136.966 504.046C137.194 503.286 137.359 502.425 137.46 501.462C137.561 500.499 137.612 499.397 137.612 498.156V495.078C137.612 494.217 137.84 493.558 138.296 493.102C138.752 492.646 139.411 492.418 140.272 492.418H149.924C150.785 492.418 151.444 492.646 151.9 493.102C152.356 493.558 152.584 494.217 152.584 495.078V508.872C152.584 509.657 152.369 510.265 151.938 510.696C151.533 511.101 150.95 511.304 150.19 511.304ZM172.18 511.38C170.255 511.38 168.583 510.987 167.164 510.202C165.745 509.417 164.643 508.302 163.858 506.858C163.073 505.389 162.68 503.666 162.68 501.69C162.68 500.195 162.895 498.865 163.326 497.7C163.782 496.509 164.428 495.496 165.264 494.66C166.1 493.799 167.101 493.153 168.266 492.722C169.431 492.266 170.736 492.038 172.18 492.038C174.105 492.038 175.777 492.431 177.196 493.216C178.615 494.001 179.717 495.116 180.502 496.56C181.287 498.004 181.68 499.714 181.68 501.69C181.68 503.185 181.452 504.527 180.996 505.718C180.565 506.909 179.932 507.935 179.096 508.796C178.26 509.632 177.259 510.278 176.094 510.734C174.929 511.165 173.624 511.38 172.18 511.38ZM172.18 507.77C173.117 507.77 173.941 507.542 174.65 507.086C175.359 506.63 175.904 505.959 176.284 505.072C176.689 504.16 176.892 503.033 176.892 501.69C176.892 499.663 176.461 498.156 175.6 497.168C174.739 496.155 173.599 495.648 172.18 495.648C171.243 495.648 170.419 495.876 169.71 496.332C169.001 496.763 168.443 497.434 168.038 498.346C167.658 499.233 167.468 500.347 167.468 501.69C167.468 503.691 167.899 505.211 168.76 506.25C169.621 507.263 170.761 507.77 172.18 507.77ZM193.872 511.304C193.213 511.304 192.694 511.114 192.314 510.734C191.959 510.329 191.782 509.771 191.782 509.062V494.698C191.782 494.141 191.858 493.672 192.01 493.292C192.162 492.912 192.403 492.621 192.732 492.418C193.061 492.215 193.467 492.114 193.948 492.114C194.429 492.114 194.822 492.203 195.126 492.38C195.455 492.532 195.734 492.735 195.962 492.988C196.19 493.241 196.38 493.52 196.532 493.824L202.118 503.4L207.704 493.824C207.881 493.495 208.071 493.203 208.274 492.95C208.502 492.697 208.768 492.494 209.072 492.342C209.401 492.19 209.794 492.114 210.25 492.114C210.985 492.114 211.529 492.342 211.884 492.798C212.239 493.229 212.416 493.862 212.416 494.698V509.062C212.416 509.771 212.239 510.329 211.884 510.734C211.529 511.114 211.01 511.304 210.326 511.304C209.667 511.304 209.148 511.114 208.768 510.734C208.413 510.329 208.236 509.771 208.236 509.062V497.89H209.148L203.714 507.162C203.587 507.39 203.397 507.618 203.144 507.846C202.916 508.049 202.574 508.15 202.118 508.15C201.637 508.15 201.282 508.036 201.054 507.808C200.826 507.58 200.649 507.365 200.522 507.162L195.05 497.89H195.962V509.062C195.962 509.771 195.785 510.329 195.43 510.734C195.075 511.114 194.556 511.304 193.872 511.304ZM238.392 511.304C237.632 511.304 237.049 511.101 236.644 510.696C236.238 510.265 236.036 509.657 236.036 508.872V496.142H230.184V498.308C230.184 500.056 230.07 501.627 229.842 503.02C229.639 504.413 229.31 505.629 228.854 506.668C228.423 507.707 227.853 508.581 227.144 509.29C226.434 509.999 225.586 510.569 224.598 511C224.066 511.228 223.572 511.291 223.116 511.19C222.685 511.089 222.318 510.899 222.014 510.62C221.735 510.316 221.558 509.961 221.482 509.556C221.406 509.125 221.456 508.707 221.634 508.302C221.811 507.897 222.153 507.555 222.66 507.276C223.293 506.921 223.812 506.478 224.218 505.946C224.623 505.414 224.94 504.781 225.168 504.046C225.396 503.286 225.56 502.425 225.662 501.462C225.763 500.499 225.814 499.397 225.814 498.156V495.078C225.814 494.217 226.042 493.558 226.498 493.102C226.954 492.646 227.612 492.418 228.474 492.418H238.126C238.987 492.418 239.646 492.646 240.102 493.102C240.558 493.558 240.786 494.217 240.786 495.078V508.872C240.786 509.657 240.57 510.265 240.14 510.696C239.734 511.101 239.152 511.304 238.392 511.304ZM258.025 511.38C256.683 511.38 255.479 511.127 254.415 510.62C253.377 510.088 252.553 509.379 251.945 508.492C251.363 507.605 251.071 506.605 251.071 505.49C251.071 504.122 251.426 503.045 252.135 502.26C252.845 501.449 253.997 500.867 255.593 500.512C257.189 500.157 259.33 499.98 262.015 499.98H263.915V502.716H262.053C260.483 502.716 259.229 502.792 258.291 502.944C257.354 503.096 256.683 503.362 256.277 503.742C255.897 504.097 255.707 504.603 255.707 505.262C255.707 506.098 255.999 506.782 256.581 507.314C257.164 507.846 257.975 508.112 259.013 508.112C259.849 508.112 260.584 507.922 261.217 507.542C261.876 507.137 262.395 506.592 262.775 505.908C263.155 505.224 263.345 504.439 263.345 503.552V499.182C263.345 497.915 263.067 497.003 262.509 496.446C261.952 495.889 261.015 495.61 259.697 495.61C258.963 495.61 258.165 495.699 257.303 495.876C256.467 496.053 255.581 496.357 254.643 496.788C254.162 497.016 253.731 497.079 253.351 496.978C252.997 496.877 252.718 496.674 252.515 496.37C252.313 496.041 252.211 495.686 252.211 495.306C252.211 494.926 252.313 494.559 252.515 494.204C252.718 493.824 253.06 493.545 253.541 493.368C254.707 492.887 255.821 492.545 256.885 492.342C257.975 492.139 258.963 492.038 259.849 492.038C261.673 492.038 263.168 492.317 264.333 492.874C265.524 493.431 266.411 494.28 266.993 495.42C267.576 496.535 267.867 497.979 267.867 499.752V508.872C267.867 509.657 267.677 510.265 267.297 510.696C266.917 511.101 266.373 511.304 265.663 511.304C264.954 511.304 264.397 511.101 263.991 510.696C263.611 510.265 263.421 509.657 263.421 508.872V507.048H263.725C263.548 507.935 263.193 508.707 262.661 509.366C262.155 509.999 261.509 510.493 260.723 510.848C259.938 511.203 259.039 511.38 258.025 511.38ZM281.226 511C280.466 511 279.884 510.797 279.478 510.392C279.073 509.987 278.87 509.404 278.87 508.644V494.508C278.87 493.697 279.06 493.102 279.44 492.722C279.846 492.317 280.403 492.114 281.112 492.114C281.847 492.114 282.404 492.317 282.784 492.722C283.164 493.102 283.354 493.697 283.354 494.508V507.276H289.738V494.508C289.738 493.697 289.928 493.102 290.308 492.722C290.714 492.317 291.271 492.114 291.98 492.114C292.715 492.114 293.272 492.317 293.652 492.722C294.032 493.102 294.222 493.697 294.222 494.508V507.276H300.606V494.508C300.606 493.697 300.796 493.102 301.176 492.722C301.582 492.317 302.139 492.114 302.848 492.114C303.583 492.114 304.14 492.317 304.52 492.722C304.9 493.102 305.09 493.697 305.09 494.508V508.644C305.09 509.404 304.888 509.987 304.482 510.392C304.077 510.797 303.494 511 302.734 511H281.226ZM322.495 511.304C321.735 511.304 321.14 511.101 320.709 510.696C320.304 510.265 320.101 509.657 320.101 508.872V496.142H315.465C314.097 496.142 313.413 495.521 313.413 494.28C313.413 493.697 313.591 493.241 313.945 492.912C314.325 492.583 314.832 492.418 315.465 492.418H329.487C330.855 492.418 331.539 493.039 331.539 494.28C331.539 494.888 331.362 495.357 331.007 495.686C330.653 495.99 330.146 496.142 329.487 496.142H324.851V508.872C324.851 509.657 324.649 510.265 324.243 510.696C323.863 511.101 323.281 511.304 322.495 511.304ZM342.052 511.304C341.571 511.304 341.166 511.215 340.836 511.038C340.507 510.861 340.254 510.582 340.076 510.202C339.924 509.822 339.848 509.341 339.848 508.758V494.394C339.848 493.659 340.038 493.102 340.418 492.722C340.798 492.317 341.33 492.114 342.014 492.114C342.698 492.114 343.218 492.317 343.572 492.722C343.952 493.102 344.142 493.659 344.142 494.394V506.136H343.154L352.54 493.634C352.819 493.279 353.161 492.937 353.566 492.608C353.972 492.279 354.529 492.114 355.238 492.114C355.72 492.114 356.112 492.203 356.416 492.38C356.746 492.557 356.986 492.836 357.138 493.216C357.316 493.571 357.404 494.039 357.404 494.622V509.024C357.404 509.733 357.214 510.291 356.834 510.696C356.48 511.101 355.96 511.304 355.276 511.304C354.567 511.304 354.022 511.101 353.642 510.696C353.288 510.291 353.11 509.733 353.11 509.024V497.244H354.136L344.712 509.784C344.459 510.139 344.13 510.481 343.724 510.81C343.344 511.139 342.787 511.304 342.052 511.304ZM370.876 518.144C370.116 518.144 369.533 517.941 369.128 517.536C368.723 517.131 368.52 516.535 368.52 515.75V494.508C368.52 493.723 368.723 493.127 369.128 492.722C369.533 492.317 370.103 492.114 370.838 492.114C371.598 492.114 372.181 492.317 372.586 492.722C372.991 493.127 373.194 493.723 373.194 494.508V497.472L372.776 496.332C373.156 495.04 373.929 494.001 375.094 493.216C376.285 492.431 377.665 492.038 379.236 492.038C380.857 492.038 382.276 492.431 383.492 493.216C384.733 494.001 385.696 495.116 386.38 496.56C387.064 497.979 387.406 499.689 387.406 501.69C387.406 503.666 387.064 505.389 386.38 506.858C385.696 508.302 384.746 509.417 383.53 510.202C382.314 510.987 380.883 511.38 379.236 511.38C377.691 511.38 376.335 511 375.17 510.24C374.005 509.455 373.219 508.441 372.814 507.2H373.27V515.75C373.27 516.535 373.055 517.131 372.624 517.536C372.219 517.941 371.636 518.144 370.876 518.144ZM377.906 507.77C378.843 507.77 379.667 507.542 380.376 507.086C381.085 506.63 381.63 505.959 382.01 505.072C382.415 504.16 382.618 503.033 382.618 501.69C382.618 499.663 382.187 498.156 381.326 497.168C380.465 496.155 379.325 495.648 377.906 495.648C376.969 495.648 376.145 495.876 375.436 496.332C374.727 496.763 374.169 497.434 373.764 498.346C373.384 499.233 373.194 500.347 373.194 501.69C373.194 503.691 373.625 505.211 374.486 506.25C375.347 507.263 376.487 507.77 377.906 507.77ZM399.728 511.304C399.246 511.304 398.841 511.215 398.512 511.038C398.182 510.861 397.929 510.582 397.752 510.202C397.6 509.822 397.524 509.341 397.524 508.758V494.394C397.524 493.659 397.714 493.102 398.094 492.722C398.474 492.317 399.006 492.114 399.69 492.114C400.374 492.114 400.893 492.317 401.248 492.722C401.628 493.102 401.818 493.659 401.818 494.394V506.136H400.83L410.216 493.634C410.494 493.279 410.836 492.937 411.242 492.608C411.647 492.279 412.204 492.114 412.914 492.114C413.395 492.114 413.788 492.203 414.092 492.38C414.421 492.557 414.662 492.836 414.814 493.216C414.991 493.571 415.08 494.039 415.08 494.622V509.024C415.08 509.733 414.89 510.291 414.51 510.696C414.155 511.101 413.636 511.304 412.952 511.304C412.242 511.304 411.698 511.101 411.318 510.696C410.963 510.291 410.786 509.733 410.786 509.024V497.244H411.812L402.388 509.784C402.134 510.139 401.805 510.481 401.4 510.81C401.02 511.139 400.462 511.304 399.728 511.304ZM428.513 511C427.753 511 427.171 510.797 426.765 510.392C426.36 509.987 426.157 509.404 426.157 508.644V494.508C426.157 493.697 426.347 493.102 426.727 492.722C427.133 492.317 427.69 492.114 428.399 492.114C429.134 492.114 429.691 492.317 430.071 492.722C430.451 493.102 430.641 493.697 430.641 494.508V507.276H437.025V494.508C437.025 493.697 437.215 493.102 437.595 492.722C438.001 492.317 438.558 492.114 439.267 492.114C440.002 492.114 440.559 492.317 440.939 492.722C441.319 493.102 441.509 493.697 441.509 494.508V507.276H447.893V494.508C447.893 493.697 448.083 493.102 448.463 492.722C448.869 492.317 449.426 492.114 450.135 492.114C450.87 492.114 451.427 492.317 451.807 492.722C452.187 493.102 452.377 493.697 452.377 494.508V508.644C452.377 509.404 452.175 509.987 451.769 510.392C451.364 510.797 450.781 511 450.021 511H428.513ZM481.999 511.304C481.29 511.304 480.745 511.101 480.365 510.696C479.985 510.291 479.795 509.733 479.795 509.024V486.186C479.795 485.451 479.998 484.894 480.403 484.514C480.808 484.109 481.366 483.906 482.075 483.906C482.708 483.906 483.202 484.033 483.557 484.286C483.937 484.514 484.279 484.919 484.583 485.502L493.969 502.868H492.753L502.139 485.502C502.443 484.919 502.772 484.514 503.127 484.286C503.482 484.033 503.976 483.906 504.609 483.906C505.318 483.906 505.863 484.109 506.243 484.514C506.623 484.894 506.813 485.451 506.813 486.186V509.024C506.813 509.733 506.623 510.291 506.243 510.696C505.888 511.101 505.344 511.304 504.609 511.304C503.9 511.304 503.355 511.101 502.975 510.696C502.595 510.291 502.405 509.733 502.405 509.024V491.43H503.241L495.261 505.984C495.008 506.415 494.742 506.731 494.463 506.934C494.184 507.137 493.804 507.238 493.323 507.238C492.842 507.238 492.449 507.137 492.145 506.934C491.841 506.706 491.575 506.389 491.347 505.984L483.291 491.392H484.203V509.024C484.203 509.733 484.013 510.291 483.633 510.696C483.278 511.101 482.734 511.304 481.999 511.304ZM524.337 511.38C522.995 511.38 521.791 511.127 520.727 510.62C519.689 510.088 518.865 509.379 518.257 508.492C517.675 507.605 517.383 506.605 517.383 505.49C517.383 504.122 517.738 503.045 518.447 502.26C519.157 501.449 520.309 500.867 521.905 500.512C523.501 500.157 525.642 499.98 528.327 499.98H530.227V502.716H528.365C526.795 502.716 525.541 502.792 524.603 502.944C523.666 503.096 522.995 503.362 522.589 503.742C522.209 504.097 522.019 504.603 522.019 505.262C522.019 506.098 522.311 506.782 522.893 507.314C523.476 507.846 524.287 508.112 525.325 508.112C526.161 508.112 526.896 507.922 527.529 507.542C528.188 507.137 528.707 506.592 529.087 505.908C529.467 505.224 529.657 504.439 529.657 503.552V499.182C529.657 497.915 529.379 497.003 528.821 496.446C528.264 495.889 527.327 495.61 526.009 495.61C525.275 495.61 524.477 495.699 523.615 495.876C522.779 496.053 521.893 496.357 520.955 496.788C520.474 497.016 520.043 497.079 519.663 496.978C519.309 496.877 519.03 496.674 518.827 496.37C518.625 496.041 518.523 495.686 518.523 495.306C518.523 494.926 518.625 494.559 518.827 494.204C519.03 493.824 519.372 493.545 519.853 493.368C521.019 492.887 522.133 492.545 523.197 492.342C524.287 492.139 525.275 492.038 526.161 492.038C527.985 492.038 529.48 492.317 530.645 492.874C531.836 493.431 532.723 494.28 533.305 495.42C533.888 496.535 534.179 497.979 534.179 499.752V508.872C534.179 509.657 533.989 510.265 533.609 510.696C533.229 511.101 532.685 511.304 531.975 511.304C531.266 511.304 530.709 511.101 530.303 510.696C529.923 510.265 529.733 509.657 529.733 508.872V507.048H530.037C529.86 507.935 529.505 508.707 528.973 509.366C528.467 509.999 527.821 510.493 527.035 510.848C526.25 511.203 525.351 511.38 524.337 511.38ZM547.576 518.144C546.816 518.144 546.233 517.941 545.828 517.536C545.423 517.131 545.22 516.535 545.22 515.75V494.508C545.22 493.723 545.423 493.127 545.828 492.722C546.233 492.317 546.803 492.114 547.538 492.114C548.298 492.114 548.881 492.317 549.286 492.722C549.691 493.127 549.894 493.723 549.894 494.508V497.472L549.476 496.332C549.856 495.04 550.629 494.001 551.794 493.216C552.985 492.431 554.365 492.038 555.936 492.038C557.557 492.038 558.976 492.431 560.192 493.216C561.433 494.001 562.396 495.116 563.08 496.56C563.764 497.979 564.106 499.689 564.106 501.69C564.106 503.666 563.764 505.389 563.08 506.858C562.396 508.302 561.446 509.417 560.23 510.202C559.014 510.987 557.583 511.38 555.936 511.38C554.391 511.38 553.035 511 551.87 510.24C550.705 509.455 549.919 508.441 549.514 507.2H549.97V515.75C549.97 516.535 549.755 517.131 549.324 517.536C548.919 517.941 548.336 518.144 547.576 518.144ZM554.606 507.77C555.543 507.77 556.367 507.542 557.076 507.086C557.785 506.63 558.33 505.959 558.71 505.072C559.115 504.16 559.318 503.033 559.318 501.69C559.318 499.663 558.887 498.156 558.026 497.168C557.165 496.155 556.025 495.648 554.606 495.648C553.669 495.648 552.845 495.876 552.136 496.332C551.427 496.763 550.869 497.434 550.464 498.346C550.084 499.233 549.894 500.347 549.894 501.69C549.894 503.691 550.325 505.211 551.186 506.25C552.047 507.263 553.187 507.77 554.606 507.77ZM576.618 511.304C575.858 511.304 575.262 511.101 574.832 510.696C574.426 510.265 574.224 509.657 574.224 508.872V494.584C574.224 493.799 574.426 493.203 574.832 492.798C575.262 492.367 575.858 492.152 576.618 492.152C577.378 492.152 577.96 492.367 578.366 492.798C578.771 493.203 578.974 493.799 578.974 494.584V499.638H581.672L586.422 493.254C586.776 492.773 587.182 492.469 587.638 492.342C588.094 492.19 588.524 492.177 588.93 492.304C589.36 492.431 589.702 492.659 589.956 492.988C590.234 493.317 590.374 493.71 590.374 494.166C590.399 494.597 590.234 495.053 589.88 495.534L585.358 501.728L584.332 500.208C585.016 500.284 585.624 500.474 586.156 500.778C586.713 501.082 587.22 501.513 587.676 502.07C588.157 502.602 588.626 503.273 589.082 504.084L591.324 508.074C591.628 508.606 591.729 509.1 591.628 509.556C591.552 509.987 591.336 510.354 590.982 510.658C590.652 510.962 590.26 511.152 589.804 511.228C589.348 511.304 588.892 511.241 588.436 511.038C588.005 510.861 587.638 510.506 587.334 509.974L584.788 505.528C584.458 504.945 584.129 504.502 583.8 504.198C583.496 503.869 583.141 503.641 582.736 503.514C582.356 503.387 581.887 503.324 581.33 503.324H578.974V508.872C578.974 509.657 578.771 510.265 578.366 510.696C577.96 511.101 577.378 511.304 576.618 511.304ZM607.306 511.38C605.964 511.38 604.76 511.127 603.696 510.62C602.658 510.088 601.834 509.379 601.226 508.492C600.644 507.605 600.352 506.605 600.352 505.49C600.352 504.122 600.707 503.045 601.416 502.26C602.126 501.449 603.278 500.867 604.874 500.512C606.47 500.157 608.611 499.98 611.296 499.98H613.196V502.716H611.334C609.764 502.716 608.51 502.792 607.572 502.944C606.635 503.096 605.964 503.362 605.558 503.742C605.178 504.097 604.988 504.603 604.988 505.262C604.988 506.098 605.28 506.782 605.862 507.314C606.445 507.846 607.256 508.112 608.294 508.112C609.13 508.112 609.865 507.922 610.498 507.542C611.157 507.137 611.676 506.592 612.056 505.908C612.436 505.224 612.626 504.439 612.626 503.552V499.182C612.626 497.915 612.348 497.003 611.79 496.446C611.233 495.889 610.296 495.61 608.978 495.61C608.244 495.61 607.446 495.699 606.584 495.876C605.748 496.053 604.862 496.357 603.924 496.788C603.443 497.016 603.012 497.079 602.632 496.978C602.278 496.877 601.999 496.674 601.796 496.37C601.594 496.041 601.492 495.686 601.492 495.306C601.492 494.926 601.594 494.559 601.796 494.204C601.999 493.824 602.341 493.545 602.822 493.368C603.988 492.887 605.102 492.545 606.166 492.342C607.256 492.139 608.244 492.038 609.13 492.038C610.954 492.038 612.449 492.317 613.614 492.874C614.805 493.431 615.692 494.28 616.274 495.42C616.857 496.535 617.148 497.979 617.148 499.752V508.872C617.148 509.657 616.958 510.265 616.578 510.696C616.198 511.101 615.654 511.304 614.944 511.304C614.235 511.304 613.678 511.101 613.272 510.696C612.892 510.265 612.702 509.657 612.702 508.872V507.048H613.006C612.829 507.935 612.474 508.707 611.942 509.366C611.436 509.999 610.79 510.493 610.004 510.848C609.219 511.203 608.32 511.38 607.306 511.38ZM635.029 511.38C633.737 511.38 632.483 511.253 631.267 511C630.051 510.772 628.962 510.43 627.999 509.974C627.543 509.746 627.214 509.467 627.011 509.138C626.808 508.783 626.707 508.429 626.707 508.074C626.732 507.694 626.846 507.365 627.049 507.086C627.277 506.807 627.581 506.63 627.961 506.554C628.341 506.478 628.784 506.567 629.291 506.82C630.102 507.2 631.001 507.491 631.989 507.694C633.002 507.871 633.978 507.96 634.915 507.96C636.536 507.96 637.689 507.77 638.373 507.39C639.057 506.985 639.399 506.377 639.399 505.566C639.399 504.831 639.133 504.274 638.601 503.894C638.069 503.514 637.309 503.324 636.321 503.324H632.939C632.356 503.324 631.9 503.172 631.571 502.868C631.242 502.539 631.077 502.108 631.077 501.576C631.077 501.044 631.242 500.639 631.571 500.36C631.9 500.056 632.356 499.904 632.939 499.904H635.865C636.752 499.904 637.448 499.727 637.955 499.372C638.462 498.992 638.715 498.46 638.715 497.776C638.715 497.041 638.411 496.471 637.803 496.066C637.22 495.661 636.156 495.458 634.611 495.458C633.724 495.458 632.863 495.547 632.027 495.724C631.191 495.876 630.368 496.129 629.557 496.484C628.949 496.737 628.43 496.788 627.999 496.636C627.594 496.459 627.302 496.167 627.125 495.762C626.948 495.357 626.935 494.939 627.087 494.508C627.239 494.077 627.581 493.735 628.113 493.482C629.228 492.975 630.38 492.608 631.571 492.38C632.787 492.152 634.066 492.038 635.409 492.038C637.892 492.038 639.779 492.507 641.071 493.444C642.388 494.356 643.047 495.635 643.047 497.282C643.047 498.447 642.654 499.435 641.869 500.246C641.084 501.031 640.032 501.513 638.715 501.69V501.158C640.286 501.259 641.514 501.715 642.401 502.526C643.288 503.337 643.731 504.426 643.731 505.794C643.731 507.491 642.984 508.847 641.489 509.86C639.994 510.873 637.841 511.38 635.029 511.38ZM655.797 511.304C655.316 511.304 654.911 511.215 654.581 511.038C654.252 510.861 653.999 510.582 653.821 510.202C653.669 509.822 653.593 509.341 653.593 508.758V494.394C653.593 493.659 653.783 493.102 654.163 492.722C654.543 492.317 655.075 492.114 655.759 492.114C656.443 492.114 656.963 492.317 657.317 492.722C657.697 493.102 657.887 493.659 657.887 494.394V506.136H656.899L666.285 493.634C666.564 493.279 666.906 492.937 667.311 492.608C667.717 492.279 668.274 492.114 668.983 492.114C669.465 492.114 669.857 492.203 670.161 492.38C670.491 492.557 670.731 492.836 670.883 493.216C671.061 493.571 671.149 494.039 671.149 494.622V509.024C671.149 509.733 670.959 510.291 670.579 510.696C670.225 511.101 669.705 511.304 669.021 511.304C668.312 511.304 667.767 511.101 667.387 510.696C667.033 510.291 666.855 509.733 666.855 509.024V497.244H667.881L658.457 509.784C658.204 510.139 657.875 510.481 657.469 510.81C657.089 511.139 656.532 511.304 655.797 511.304Z" fill="#999999"/>
<circle cx="363" cy="98" r="54.5" stroke="url(#paint1_linear_17_326)" stroke-width="35"/>
<circle cx="435" cy="222" r="54.5" stroke="url(#paint2_linear_17_326)" stroke-width="35"/>
<circle cx="291" cy="222" r="54.5" stroke="url(#paint3_linear_17_326)" stroke-width="35"/>
<defs>
<linearGradient id="paint0_linear_17_326" x1="26" y1="454" x2="26.1899" y2="469.998" gradientUnits="userSpaceOnUse">
<stop stop-color="#005AA0"/>
<stop offset="1" stop-color="#008FFF"/>
</linearGradient>
<linearGradient id="paint1_linear_17_326" x1="363" y1="26" x2="363" y2="170" gradientUnits="userSpaceOnUse">
<stop stop-color="#3A4268"/>
<stop offset="1" stop-color="#486C96"/>
</linearGradient>
<linearGradient id="paint2_linear_17_326" x1="435" y1="150" x2="435" y2="294" gradientUnits="userSpaceOnUse">
<stop stop-color="#436893"/>
<stop offset="1" stop-color="#3FB0EC"/>
</linearGradient>
<linearGradient id="paint3_linear_17_326" x1="291" y1="150" x2="291" y2="294" gradientUnits="userSpaceOnUse">
<stop stop-color="#436893"/>
<stop offset="1" stop-color="#3FB0EC"/>
</linearGradient>
</defs>
</svg>
