<svg width="42" height="42" viewBox="0 0 42 42" fill="none" xmlns="http://www.w3.org/2000/svg">
<path d="M16.6746 12.6L17.1156 12.18C18.2076 11.046 18.0186 10.521 16.9476 9.45001L11.2356 3.675C9.5346 1.953 9.2196 1.134 7.6026 2.667L7.1616 3.087L16.6746 12.6ZM15.5616 13.545L6.3216 4.305C4.8516 6.279 1.4076 11.592 3.1086 15.519C4.6416 19.026 5.3976 19.194 7.3086 21.819C11.1936 26.25 16.0866 30.996 19.9086 34.566C22.5546 36.477 22.6596 37.359 26.2086 38.766C29.9886 40.257 35.4486 36.897 37.5066 35.49L28.2666 26.25L25.7886 29.652C25.0746 30.618 23.2686 29.526 22.0086 28.266C19.8246 26.061 15.3306 21.588 13.6086 19.719C12.3696 18.48 11.2566 16.674 12.2226 15.939L15.5616 13.545ZM38.7036 34.65L39.1446 34.209C40.5726 32.655 39.7536 32.319 38.0526 30.639L32.2986 24.927C31.2276 23.898 30.7236 23.667 29.6316 24.696L29.2116 25.137L38.7036 34.65Z" fill="#29A5DA"/>
</svg>
