<svg width="46" height="46" viewBox="0 0 46 46" fill="none" xmlns="http://www.w3.org/2000/svg">
<path d="M23 46C10.2961 46 0 35.7039 0 23C0 10.2961 10.2961 0 23 0C35.7039 0 46 10.2961 46 23C46 35.7039 35.7039 46 23 46ZM20.8438 23C20.8438 23.7188 21.2031 24.3926 21.8051 24.716L30.4301 30.466C31.4184 31.2027 32.757 30.9332 33.341 29.9449C34.0777 28.9566 33.8082 27.618 32.8199 26.9531L25.1562 21.85V10.7812C25.1562 9.58633 24.1949 8.625 22.9191 8.625C21.8051 8.625 20.7629 9.58633 20.7629 10.7812L20.8438 23Z" fill="white"/>
</svg>
