<svg width="50" height="50" viewBox="0 0 50 50" fill="none" xmlns="http://www.w3.org/2000/svg">
<path d="M39.5768 41.6667C21.8039 41.6917 8.31428 28.0417 8.33303 10.4229C8.33303 9.27084 9.26636 8.33334 10.4164 8.33334H15.9164C16.9476 8.33334 17.8247 9.09168 17.9768 10.1125C18.3395 12.5605 19.0516 14.9439 20.0914 17.1896L20.3059 17.6521C20.4501 17.9633 20.4811 18.3151 20.3936 18.6467C20.3061 18.9784 20.1057 19.2691 19.8268 19.4688C18.1226 20.6854 17.4726 23.1333 18.7997 25.0417C20.4705 27.4444 22.5558 29.5305 24.958 31.2021C26.8684 32.5271 29.3164 31.8771 30.5309 30.175C30.7304 29.8953 31.0213 29.6941 31.3535 29.6062C31.6856 29.5183 32.038 29.5493 32.3497 29.6938L32.8101 29.9063C35.0559 30.9479 37.4393 31.6604 39.8872 32.0229C40.908 32.175 41.6664 33.0521 41.6664 34.0854V39.5833C41.6664 39.8571 41.6124 40.1282 41.5076 40.3811C41.4028 40.634 41.2491 40.8637 41.0554 41.0572C40.8618 41.2507 40.6318 41.4041 40.3788 41.5087C40.1258 41.6133 39.8547 41.667 39.5809 41.6667H39.5768Z" fill="white"/>
</svg>
