<svg width="32" height="32" viewBox="0 0 32 32" fill="none" xmlns="http://www.w3.org/2000/svg">
<path d="M23.1688 0H8.8306C3.96141 0 0 3.9616 0 8.83079V23.169C0 28.0384 3.96141 31.9998 8.8306 31.9998H23.1688C28.0384 31.9998 31.9998 28.0382 31.9998 23.169V8.83079C32 3.9616 28.0384 0 23.1688 0ZM29.1608 23.169C29.1608 26.4729 26.4729 29.1606 23.169 29.1606H8.8306C5.52693 29.1608 2.83918 26.4729 2.83918 23.169V8.83079C2.83918 5.52712 5.52693 2.83918 8.8306 2.83918H23.1688C26.4727 2.83918 29.1606 5.52712 29.1606 8.83079V23.169H29.1608Z" fill="white"/>
<path d="M15.9994 7.75488C11.4528 7.75488 7.75391 11.4538 7.75391 16.0004C7.75391 20.5469 11.4528 24.2456 15.9994 24.2456C20.5461 24.2456 24.245 20.5469 24.245 16.0004C24.245 11.4538 20.5461 7.75488 15.9994 7.75488ZM15.9994 21.4062C13.0185 21.4062 10.5931 18.9812 10.5931 16.0002C10.5931 13.0191 13.0183 10.5939 15.9994 10.5939C18.9806 10.5939 21.4058 13.0191 21.4058 16.0002C21.4058 18.9812 18.9804 21.4062 15.9994 21.4062Z" fill="white"/>
<path d="M24.5918 5.34766C24.0448 5.34766 23.5075 5.56911 23.1211 5.95713C22.7329 6.34326 22.5098 6.88081 22.5098 7.42972C22.5098 7.97692 22.7331 8.51429 23.1211 8.90231C23.5073 9.28844 24.0448 9.51178 24.5918 9.51178C25.1407 9.51178 25.6764 9.28844 26.0644 8.90231C26.4524 8.51429 26.6739 7.97674 26.6739 7.42972C26.6739 6.88081 26.4524 6.34326 26.0644 5.95713C25.6783 5.56911 25.1407 5.34766 24.5918 5.34766Z" fill="white"/>
</svg>
