<svg width="32" height="43" viewBox="0 0 32 43" fill="none" xmlns="http://www.w3.org/2000/svg">
<g clip-path="url(#clip0_42_1338)">
<path d="M14.025 41.8213C9.675 36.4428 0 23.4072 0 16.0851C0 7.20144 7.16333 0 16 0C24.8333 0 32 7.20144 32 16.0851C32 23.4072 22.25 36.4428 17.975 41.8213C16.95 43.1031 15.05 43.1031 14.025 41.8213ZM16 21.4468C18.9417 21.4468 21.3333 19.0424 21.3333 16.0851C21.3333 13.1278 18.9417 10.7234 16 10.7234C13.0583 10.7234 10.6667 13.1278 10.6667 16.0851C10.6667 19.0424 13.0583 21.4468 16 21.4468Z" fill="white"/>
</g>
<defs>
<clipPath id="clip0_42_1338">
<rect width="32" height="42.8936" fill="white"/>
</clipPath>
</defs>
</svg>
