<svg width="50" height="50" viewBox="0 0 50 50" fill="none" xmlns="http://www.w3.org/2000/svg">
<path d="M45 18.4325V36.25C45 37.9076 44.3415 39.4973 43.1694 40.6694C41.9973 41.8415 40.4076 42.5 38.75 42.5H11.25C9.5924 42.5 8.00269 41.8415 6.83058 40.6694C5.65848 39.4973 5 37.9076 5 36.25V18.4325L24.365 29.8275C24.5574 29.941 24.7767 30.0008 25 30.0008C25.2233 30.0008 25.4426 29.941 25.635 29.8275L45 18.4325ZM38.75 10C40.2879 9.99976 41.7718 10.5665 42.918 11.5918C44.0642 12.6172 44.7921 14.0291 44.9625 15.5575L25 27.3L5.0375 15.5575C5.2079 14.0291 5.93581 12.6172 7.08199 11.5918C8.22816 10.5665 9.71213 9.99976 11.25 10H38.75Z" fill="white"/>
</svg>
