<svg width="32" height="19" viewBox="0 0 32 19" fill="none" xmlns="http://www.w3.org/2000/svg">
<path d="M19.5096 1.90866C19.2908 2.12744 19.168 2.42414 19.168 2.73349C19.168 3.04285 19.2908 3.33955 19.5096 3.55833L25.2846 9.33333L19.5096 15.1083C19.297 15.3284 19.1794 15.6231 19.1821 15.929C19.1848 16.2349 19.3075 16.5275 19.5238 16.7438C19.7401 16.9601 20.0327 17.0828 20.3386 17.0854C20.6445 17.0881 20.9392 16.9705 21.1592 16.758L27.759 10.1582C27.9778 9.93938 28.1006 9.64269 28.1006 9.33333C28.1006 9.02397 27.9778 8.72728 27.759 8.5085L21.1592 1.90866C20.9404 1.68995 20.6437 1.56708 20.3344 1.56708C20.025 1.56708 19.7283 1.68995 19.5096 1.90866Z" fill="white"/>
<rect y="8" width="25.7778" height="2.66667" rx="1.33333" fill="white"/>
</svg>
