<svg width="30" height="30" viewBox="0 0 30 30" fill="none" xmlns="http://www.w3.org/2000/svg">
<path d="M20.0144 4.37436C20.178 4.5418 20.2695 4.76656 20.2695 5.00061C20.2695 5.23466 20.178 5.45943 20.0144 5.62686L10.8776 15L20.0144 24.3712C20.178 24.5387 20.2695 24.7634 20.2695 24.9975C20.2695 25.2315 20.178 25.4563 20.0144 25.6237C19.9349 25.7054 19.8399 25.7703 19.7349 25.8146C19.6299 25.8589 19.5171 25.8817 19.4032 25.8817C19.2892 25.8817 19.1764 25.8589 19.0715 25.8146C18.9665 25.7703 18.8714 25.7054 18.7919 25.6237L9.07568 15.6544C8.90503 15.4793 8.80952 15.2445 8.80952 15C8.80952 14.7555 8.90503 14.5207 9.07568 14.3456L18.7919 4.37624C18.8714 4.29459 18.9665 4.2297 19.0715 4.18539C19.1764 4.14108 19.2892 4.11826 19.4032 4.11826C19.5171 4.11826 19.6299 4.14108 19.7349 4.18539C19.8399 4.2297 19.9349 4.29459 20.0144 4.37624V4.37436Z" fill="white"/>
</svg>
